<svg width="300" height="200" viewBox="0 0 1874 1182" fill="none" xmlns="http://www.w3.org/2000/svg">
<g clip-path="url(#clip0_91_2)">
<path d="M1790.68 343.76C1740.75 273.89 1670.53 211.88 1581.95 159.44C1408.26 56.62 1179.18 0 936.91 0C694.64 0 465.57 56.62 291.87 159.44C203.3 211.87 133.07 273.88 83.14 343.76C27.97 420.97 0 504.02 0 590.61C0 677.2 27.97 760.25 83.14 837.46C133.07 907.34 203.3 969.35 291.87 1021.78C465.57 1124.6 694.65 1181.22 936.91 1181.22C1179.17 1181.22 1408.26 1124.6 1581.95 1021.78C1670.52 969.35 1740.75 907.34 1790.68 837.46C1845.85 760.25 1873.82 677.2 1873.82 590.61C1873.82 504.02 1845.85 420.97 1790.68 343.76Z" fill="white"/>
<path d="M936.909 1092.95C1405.6 1092.95 1785.55 868.045 1785.55 590.61C1785.55 313.175 1405.6 88.27 936.909 88.27C468.219 88.27 88.2695 313.175 88.2695 590.61C88.2695 868.045 468.219 1092.95 936.909 1092.95Z" fill="#FF99D1"/>
<path d="M936.91 1124.22C819.79 1124.22 706.09 1110.62 598.99 1083.81C495 1057.78 401.44 1020.4 320.9 972.73C239.19 924.37 174.8 867.71 129.51 804.33C81.4 736.98 57 665.08 57 590.61C57 516.14 81.4 444.24 129.52 376.9C174.81 313.52 239.2 256.86 320.91 208.5C401.45 160.83 495.01 123.45 598.99 97.42C706.09 70.6 819.79 57 936.91 57C1054.03 57 1167.73 70.6 1274.83 97.41C1378.82 123.45 1472.38 160.82 1552.91 208.49C1634.62 256.85 1699.01 313.51 1744.3 376.89C1792.42 444.23 1816.82 516.14 1816.82 590.6C1816.82 665.06 1792.42 736.97 1744.3 804.31C1699.01 867.69 1634.62 924.35 1552.91 972.71C1472.37 1020.38 1378.81 1057.76 1274.83 1083.79C1167.73 1110.63 1054.04 1124.22 936.91 1124.22ZM936.91 119.54C824.9 119.54 716.32 132.51 614.17 158.08C516.04 182.65 428.09 217.72 352.75 262.31C278.59 306.22 220.6 357 180.4 413.26C140.01 469.78 119.54 529.45 119.54 590.62C119.54 651.79 140.02 711.45 180.4 767.98C220.6 824.24 278.59 875.02 352.76 918.93C428.1 963.53 516.05 998.59 614.18 1023.16C716.32 1048.73 824.91 1061.7 936.92 1061.7C1048.93 1061.7 1157.51 1048.73 1259.66 1023.16C1357.79 998.59 1445.74 963.52 1521.08 918.93C1595.25 875.03 1653.24 824.24 1693.44 767.98C1733.83 711.46 1754.3 651.79 1754.3 590.62C1754.3 529.45 1733.82 469.79 1693.44 413.26C1653.24 357 1595.25 306.22 1521.08 262.31C1445.74 217.71 1357.79 182.65 1259.66 158.08C1157.5 132.51 1048.92 119.54 936.91 119.54Z" fill="#C7212F"/>
<path d="M551.63 530.38C543.49 533.75 538.52 538.72 536.94 543.88C532.95 556.98 544.48 570.08 569.29 570.08C585.96 570.08 597.49 563.93 601.24 553.2C607.81 534.36 587.36 516.68 563.54 496.83C531.58 470.23 494.07 437.68 508.16 389.84C520.86 346.76 577.04 310.44 650.09 310.44C717.18 310.44 741.56 342.8 730.3 376.35C720.51 405.53 683.83 435.69 628.85 446.02L623.09 421.6C655.45 413.06 674.47 395.21 680.27 378.33C687.37 357.68 674.1 339.81 646.11 339.81C607.6 339.81 574.91 357.87 567.86 386.85C560.8 415.88 585.57 437.47 611.17 459.31C640.95 484.72 671.11 511.12 655.44 551.42C645.1 578.01 616.13 597.47 572.46 597.47C517.48 597.47 495.63 571.47 500.61 545.86C504.16 527.6 522.24 515.68 542.88 511.32L551.63 530.38Z" fill="#21297C"/>
<path d="M824.44 527.63C824.23 528.29 824.01 528.92 823.78 529.59C809.89 569.29 778.32 596.68 739.22 596.68C691.78 596.68 673.29 555.99 687.62 515.3C701.68 475.39 737.83 449.79 777.13 449.79C813.39 449.79 829.13 474.61 828.68 502.98C841.89 502.59 859.51 493.97 867.85 481.95L882.14 492.87C870.04 510.14 847.28 524.25 824.44 527.63ZM794.55 525.52C779.86 520.68 771.2 509.82 774.35 493.85C775.66 487.24 779.47 482.58 784.21 479.68C782.26 479.08 780.11 478.76 777.72 478.76C760.45 478.76 746.32 497.62 741.02 514.1C733.22 538.31 740.6 556.17 758.67 556.17C773.43 556.18 786.72 545.57 794.55 525.52Z" fill="#21297C"/>
<path d="M1054.44 527.2C1030.42 562.14 993.5 596.68 956.18 596.68C934.76 596.68 924.82 583.96 928.2 561.92C909.06 583.79 886.64 596.68 865.26 596.68C841.04 596.68 834.89 576.64 843.02 553.01L877.17 453.76H929.97L899.23 543.34C895.98 552.8 898.61 556.38 903.37 556.38C909.39 556.38 923.81 549.67 943.07 514.94L964.11 453.75H1016.91L985.98 543.54C982.72 552.99 986.15 556.38 991.31 556.38C1003.42 556.38 1023.47 540.5 1040.14 516.28L1054.44 527.2Z" fill="#21297C"/>
<path d="M1234.67 527.2C1210.65 562.14 1173.73 596.68 1136.41 596.68C1110.41 596.68 1100.48 578.81 1112.19 547.45L1129.47 501.2C1133.03 491.68 1130.06 487.91 1125.29 487.91C1119.27 487.91 1104.21 496.46 1084.87 531.4L1063.76 592.72H1010.96L1058.8 453.77H1111.6L1101.83 482.16C1120.49 461.75 1142.03 449.8 1162.62 449.8C1186.84 449.8 1193.76 469.25 1184.88 493.06L1165.99 543.7C1162.43 553.22 1166.2 556.4 1171.36 556.4C1183.67 556.4 1203.72 540.52 1220.39 516.3L1234.67 527.2Z" fill="#21297C"/>
<path d="M1405.37 516.29L1419.66 527.21C1395.64 562.15 1358.72 596.69 1321.4 596.69C1303.49 596.69 1293.62 587.9 1292.83 572.18C1279.78 586.46 1263.56 596.69 1245.18 596.69C1209.45 596.69 1194.53 557.39 1208.87 516.31C1222.32 477.79 1256.49 449.8 1290.24 449.8C1304.5 449.8 1317.38 455.81 1323.96 469.41L1376.99 314.82H1429.79L1351.21 543.75C1347.96 553.21 1351.38 556.4 1356.54 556.4C1368.65 556.38 1388.7 540.5 1405.37 516.29ZM1273.97 556.39C1283.07 556.39 1291.75 550.76 1299.43 540.93L1315.46 494.2C1312.92 486.28 1307.34 482.15 1298.78 482.15C1281.91 482.15 1267.2 498.63 1261.27 517.68C1254.1 540.7 1258.68 556.38 1273.97 556.39Z" fill="#21297C"/>
<path d="M834.64 656.6C858.07 656.6 914.83 692.57 914.83 762.86C914.83 833.15 861.04 913.34 789.43 913.34C717.82 913.34 657.76 855.26 657.76 778.37C657.76 701.48 712.21 652.97 747.52 652.97C782.83 652.97 801.64 664.52 801.64 664.52C801.64 664.52 811.21 656.6 834.64 656.6ZM766.99 806.75C766.99 824.57 772.93 839.75 788.44 839.75C800.65 839.75 830.68 807.41 830.68 767.48C830.68 734.81 822.76 720.62 814.51 720.62C804.61 720.62 766.99 760.22 766.99 806.75Z" fill="#21297C"/>
<path d="M1108.21 654.29C1137.91 654.29 1199.29 673.76 1199.29 702.47C1199.29 731.18 1195 847.01 1191.37 871.76C1187.74 896.51 1174.21 915.32 1162.33 915.32C1151.11 915.32 1134.61 909.05 1125.04 909.05C1111.18 909.05 1089.73 905.09 1082.14 895.52C1073.89 885.29 1044.19 819.62 1036.93 819.62C1033.96 819.62 1033.3 827.21 1033.3 837.77C1033.3 853.94 1035.28 876.05 1035.28 884.63C1035.28 898.82 1016.8 910.04 999.97 910.04C983.14 910.04 941.56 898.82 941.56 871.76C941.56 844.7 936.94 784.31 936.94 754.94C936.94 725.57 943.54 693.89 943.54 685.97C943.54 678.05 935.95 675.41 935.95 670.79C935.95 666.17 951.79 655.28 975.88 655.28C999.97 655.28 1028.68 663.86 1040.89 680.03C1053.1 696.2 1093.36 753.62 1099.63 753.62C1101.61 753.62 1102.27 747.35 1102.27 738.11C1102.27 719.96 1099.63 690.92 1099.63 681.35C1099.63 667.16 1088.74 666.17 1088.74 661.55C1088.74 658.25 1096.33 654.29 1108.21 654.29Z" fill="#21297C"/>
<path d="M1123.47 942.383L774.395 944.72L774.488 958.72L1123.57 956.383L1123.47 942.383Z" fill="#21297C"/>
</g>
<defs>
<clipPath id="clip0_91_2">
<rect width="1873.82" height="1181.22" fill="white"/>
</clipPath>
</defs>
</svg>
