<svg width="515" height="406" viewBox="0 0 515 406" fill="none" xmlns="http://www.w3.org/2000/svg">
<g clip-path="url(#clip0_97_18)">
<g filter="url(#filter0_d_97_18)">
<path d="M463.322 90.4075C448.678 74.1558 429.13 60.4786 405.213 49.7533C358.318 28.7243 298.745 20.988 237.469 27.9669C176.193 34.9459 119.888 55.8799 78.9198 86.916C58.0301 102.742 42.0553 120.465 31.4419 139.596C19.7144 160.733 15.0349 182.566 17.5318 204.489C20.0288 226.413 29.4979 246.634 45.6782 264.593C60.3218 280.847 79.8729 294.524 103.786 305.247C150.684 326.276 210.257 334.012 271.531 327.033C332.804 320.055 389.114 299.12 430.08 268.084C450.97 252.259 466.944 234.536 477.558 215.405C489.285 194.267 493.965 172.434 491.468 150.511C488.971 128.588 479.502 108.367 463.322 90.4075Z" fill="#21297C"/>
<path d="M268.985 304.686C387.529 291.184 477.142 223.297 469.142 153.055C461.142 82.8125 358.558 36.815 240.014 50.3163C121.471 63.8177 31.8575 131.705 39.8576 201.947C47.8577 272.19 150.442 318.187 268.985 304.686Z" fill="#21297C"/>
<path d="M269.887 312.602C240.265 315.976 211.115 315.808 183.254 312.106C156.201 308.511 131.46 301.742 109.714 291.993C87.6535 282.102 69.7338 269.612 56.4512 254.87C42.3408 239.204 34.0962 221.703 31.9487 202.848C29.8013 183.993 33.8994 165.086 44.1283 146.651C53.7557 129.299 68.4076 113.099 87.6796 98.5012C106.676 84.1118 129.261 71.9527 154.81 62.367C181.125 52.4914 209.49 45.7728 239.113 42.3989C268.735 39.0251 297.885 39.1931 325.747 42.8958C352.799 46.4932 377.54 53.2595 399.283 63.009C421.344 72.8993 439.264 85.3898 452.546 100.132C466.659 115.795 474.904 133.299 477.051 152.151C479.198 171.003 475.1 189.913 464.871 208.348C455.244 225.7 440.592 241.9 421.32 256.498C402.324 270.887 379.738 283.046 354.19 292.632C327.876 302.513 299.512 309.228 269.887 312.602ZM240.916 58.2331C212.586 61.4597 185.497 67.8713 160.399 77.2879C136.287 86.3354 115.054 97.7481 97.2844 111.208C79.7937 124.461 66.5909 138.989 58.0456 154.391C49.4598 169.864 46.0031 185.562 47.767 201.049C49.5309 216.536 56.4311 231.051 68.2743 244.2C80.0642 257.287 96.1957 268.473 116.221 277.454C136.563 286.575 159.819 292.918 185.347 296.312C211.918 299.844 239.757 300 268.087 296.773C296.417 293.546 323.506 287.135 348.605 277.718C372.716 268.671 393.949 257.258 411.719 243.798C429.212 230.547 442.415 216.017 450.96 200.615C459.546 185.142 463.003 169.444 461.239 153.957C459.475 138.47 452.575 123.955 440.731 110.805C428.941 97.7193 412.81 86.5331 392.784 77.5523C372.443 68.4306 349.187 62.0875 323.659 58.6935C297.083 55.1625 269.246 55.0065 240.916 58.2331Z" fill="white"/>
</g>
<path d="M202.987 110.333L204.55 133.126L196.859 121.962L193.459 136.162L187.338 113.518L175.335 115.033L184.687 163.456L195.697 162.941L199.348 145.758L205.504 160.938L217.835 158.425L217.867 110.115L202.987 110.333Z" fill="#F8F22D"/>
<path d="M242.674 105.369L245.605 125.274L238.625 124.887L237.335 107.085L219.866 107.893L226.705 158.227L241.411 156.479L238.049 136.032L246.953 135.166L248.096 155.57L263.799 154.15L260.524 104.666L242.674 105.369Z" fill="#F8F22D"/>
<path d="M301.066 100.639L284.281 100.335L283.841 119.146L276.701 102.454L261.017 104.684L275.924 130.611L276.698 152.312L295.054 150.221L291.794 131.314L301.066 100.639Z" fill="#F8F22D"/>
<path d="M137.024 216.065C135.372 213.224 128.519 212.011 127.637 212.037C127.564 212.046 127.564 212.046 127.564 212.046L127.637 212.037C128.503 211.865 134.336 210.609 135.011 208.76C136.282 205.661 134.375 192.804 131.761 190.59C127.85 187.343 102.745 193.674 102.745 193.674L109.146 243.393C109.146 243.393 133.329 243.224 137.565 238.31C139.195 236.425 139.318 220.014 137.024 216.065ZM116.267 199.668C116.267 199.668 120.102 199.009 120.987 199.647C121.863 200.212 122.629 207.585 122.017 208.689C121.413 209.866 117.192 209.091 117.192 209.091L116.267 199.668ZM125.429 232.823C125.044 233.974 120.767 233.354 120.767 233.354L118.896 221.453C118.896 221.453 123.094 220.089 124.479 220.596C125.784 221.038 125.823 231.744 125.429 232.823Z" fill="#F8F22D"/>
<path d="M166.639 186.249L144.08 188.375L142.108 240.378L157.406 236.05L155.94 221.887L162.408 221.668L164.589 236.931L181.206 235.112L166.639 186.249ZM160.638 211.307L155.512 211.004L155.304 197.511L159.141 197.517L160.638 211.307Z" fill="#F8F22D"/>
<path d="M199.606 182.863L205.477 205.905L192.565 183.887L177.16 184.681L183.913 232.957L196.562 233.88L192.541 212.179L205.909 232.372L218.38 230.435L213.157 181.985L199.606 182.863Z" fill="#F8F22D"/>
<path d="M245.599 177.256L223.04 179.382L221.068 231.384L236.366 227.057L234.9 212.894L241.368 212.675L243.549 227.938L260.166 226.119L245.599 177.256ZM239.598 202.314L234.472 202.011L234.264 188.518L238.101 188.524L239.598 202.314Z" fill="#F8F22D"/>
<path d="M278.566 173.87L284.437 196.912L271.525 174.894L256.12 175.688L262.873 223.964L275.522 224.887L271.501 203.186L284.869 223.379L297.34 221.442L292.117 172.992L278.566 173.87Z" fill="#F8F22D"/>
<path d="M324.559 168.263L302.001 170.389L300.028 222.391L315.326 218.064L313.86 203.901L320.328 203.682L322.51 218.945L339.126 217.126L324.559 168.263ZM318.558 193.321L313.432 193.018L313.224 179.525L317.061 179.531L318.558 193.321Z" fill="#F8F22D"/>
<path d="M368.665 164.2C364.929 163.148 337.466 165.611 336.46 167.794C335.196 170.301 338.514 192.304 339.56 193.071C340.534 193.846 357.246 194.159 357.246 194.159L357.25 207.158L349.654 209.132L347.633 199.169L338.644 201.226C338.644 201.226 341.082 215.5 343.277 215.988C346.825 216.692 369.693 215.343 371.454 213.961C373.288 212.57 370.1 187.82 369.189 186.299C368.571 185.409 352.686 185.224 352.686 185.224L352.231 176.043L359.186 176.211L360.448 181.459C360.448 181.459 369.338 181.776 369.426 181.249C369.545 180.349 369.507 164.473 368.665 164.2Z" fill="#F8F22D"/>
<path d="M405.028 160.206C401.158 157.323 372.28 163.566 372.28 163.566L376.888 183.945L387.066 181.308L386.338 172.971L391.535 172.6L392.874 182.419L382.497 191.726L387.387 202.914L397.679 200.633L395.625 192.964C395.625 192.964 406.188 186.59 407.914 184.252C409.769 181.751 408.249 162.572 405.028 160.206ZM388.489 206.112L386.662 206.911L388.37 215.432L400.708 212.328L396.952 203.966L388.489 206.112Z" fill="#F8F22D"/>
</g>
<defs>
<filter id="filter0_d_97_18" x="12.8799" y="25.4648" width="483.24" height="314.07" filterUnits="userSpaceOnUse" color-interpolation-filters="sRGB">
<feFlood flood-opacity="0" result="BackgroundImageFix"/>
<feColorMatrix in="SourceAlpha" type="matrix" values="0 0 0 0 0 0 0 0 0 0 0 0 0 0 0 0 0 0 127 0" result="hardAlpha"/>
<feOffset dy="6"/>
<feGaussianBlur stdDeviation="2"/>
<feComposite in2="hardAlpha" operator="out"/>
<feColorMatrix type="matrix" values="0 0 0 0 0 0 0 0 0 0 0 0 0 0 0 0 0 0 0.25 0"/>
<feBlend mode="normal" in2="BackgroundImageFix" result="effect1_dropShadow_97_18"/>
<feBlend mode="normal" in="SourceGraphic" in2="effect1_dropShadow_97_18" result="shape"/>
</filter>
<clipPath id="clip0_97_18">
<rect width="477" height="352.387" fill="white" transform="translate(0.500977 54.9561) rotate(-6.49762)"/>
</clipPath>
</defs>
</svg>
