<svg width="367" height="200" viewBox="0 0 1874 1182" fill="none" xmlns="http://www.w3.org/2000/svg">
<g clip-path="url(#clip0_101_2)">
<path d="M1790.68 343.76C1740.75 273.89 1670.53 211.88 1581.95 159.44C1408.26 56.62 1179.18 0 936.91 0C694.64 0 465.57 56.62 291.87 159.44C203.3 211.87 133.07 273.88 83.14 343.76C27.97 420.97 0 504.02 0 590.61C0 677.2 27.97 760.25 83.14 837.46C133.07 907.34 203.3 969.35 291.87 1021.78C465.57 1124.6 694.65 1181.22 936.91 1181.22C1179.17 1181.22 1408.26 1124.6 1581.95 1021.78C1670.52 969.35 1740.75 907.34 1790.68 837.46C1845.85 760.25 1873.82 677.2 1873.82 590.61C1873.82 504.02 1845.85 420.97 1790.68 343.76Z" fill="#21297C"/>
<path d="M936.909 1092.95C1405.6 1092.95 1785.55 868.044 1785.55 590.61C1785.55 313.175 1405.6 88.2695 936.909 88.2695C468.219 88.2695 88.2695 313.175 88.2695 590.61C88.2695 868.044 468.219 1092.95 936.909 1092.95Z" fill="#F8F22D"/>
<path d="M936.909 1116.45C820.419 1116.45 707.359 1102.93 600.87 1076.27C497.609 1050.42 404.75 1013.33 324.86 966.04C244.09 918.23 180.5 862.3 135.84 799.81C88.6795 733.81 64.7695 663.43 64.7695 590.61C64.7695 517.79 88.6795 447.41 135.84 381.41C180.5 318.91 244.09 262.99 324.86 215.17C404.75 167.88 497.62 130.79 600.87 104.94C707.359 78.2798 820.419 64.7598 936.909 64.7598C1053.4 64.7598 1166.46 78.2798 1272.95 104.94C1376.21 130.79 1469.07 167.88 1548.96 215.17C1629.73 262.98 1693.33 318.91 1737.98 381.41C1785.14 447.41 1809.05 517.79 1809.05 590.61C1809.05 663.43 1785.14 733.81 1737.98 799.81C1693.32 862.31 1629.73 918.23 1548.96 966.05C1469.07 1013.34 1376.2 1050.43 1272.95 1076.28C1166.46 1102.94 1053.4 1116.45 936.909 1116.45ZM936.909 111.77C824.269 111.77 715.049 124.81 612.289 150.54C513.439 175.29 424.79 210.64 348.8 255.62C273.69 300.08 214.91 351.59 174.08 408.74C132.73 466.6 111.77 527.79 111.77 590.61C111.77 653.43 132.73 714.62 174.08 772.48C214.91 829.62 273.69 881.14 348.8 925.6C424.78 970.58 513.43 1005.93 612.289 1030.68C715.049 1056.41 824.269 1069.45 936.909 1069.45C1049.55 1069.45 1158.77 1056.41 1261.53 1030.68C1360.38 1005.93 1449.03 970.58 1525.02 925.6C1600.13 881.14 1658.91 829.63 1699.74 772.48C1741.09 714.62 1762.05 653.43 1762.05 590.61C1762.05 527.79 1741.09 466.6 1699.74 408.74C1658.91 351.6 1600.13 300.08 1525.02 255.62C1449.04 210.64 1360.39 175.29 1261.53 150.54C1158.77 124.82 1049.56 111.77 936.909 111.77Z" fill="white"/>
<path d="M551.63 530.38C543.49 533.75 538.52 538.72 536.94 543.88C532.95 556.98 544.48 570.08 569.29 570.08C585.96 570.08 597.49 563.93 601.24 553.2C607.81 534.36 587.36 516.68 563.54 496.83C531.58 470.23 494.07 437.68 508.16 389.84C520.86 346.76 577.04 310.44 650.09 310.44C717.18 310.44 741.56 342.8 730.3 376.35C720.51 405.53 683.83 435.69 628.85 446.02L623.09 421.6C655.45 413.06 674.47 395.21 680.27 378.33C687.37 357.68 674.1 339.81 646.11 339.81C607.6 339.81 574.91 357.87 567.86 386.85C560.8 415.88 585.57 437.47 611.17 459.31C640.95 484.72 671.11 511.12 655.44 551.42C645.1 578.01 616.13 597.47 572.46 597.47C517.48 597.47 495.63 571.47 500.61 545.86C504.16 527.6 522.24 515.68 542.88 511.32L551.63 530.38Z" fill="#21297C"/>
<path d="M824.44 527.63C824.23 528.29 824.01 528.92 823.78 529.59C809.89 569.29 778.32 596.68 739.22 596.68C691.78 596.68 673.29 555.99 687.62 515.3C701.68 475.39 737.83 449.79 777.13 449.79C813.39 449.79 829.13 474.61 828.68 502.98C841.89 502.59 859.51 493.97 867.85 481.95L882.14 492.87C870.04 510.14 847.28 524.25 824.44 527.63ZM794.55 525.52C779.86 520.68 771.2 509.82 774.35 493.85C775.66 487.24 779.47 482.58 784.21 479.68C782.26 479.08 780.11 478.76 777.72 478.76C760.45 478.76 746.32 497.62 741.02 514.1C733.22 538.31 740.6 556.17 758.67 556.17C773.43 556.18 786.73 545.57 794.55 525.52Z" fill="#21297C"/>
<path d="M1054.44 527.2C1030.42 562.14 993.5 596.68 956.18 596.68C934.76 596.68 924.82 583.96 928.2 561.92C909.06 583.79 886.64 596.68 865.26 596.68C841.04 596.68 834.89 576.64 843.02 553.01L877.17 453.76H929.97L899.23 543.34C895.98 552.8 898.61 556.38 903.37 556.38C909.39 556.38 923.81 549.67 943.07 514.94L964.11 453.75H1016.91L985.98 543.54C982.72 552.99 986.15 556.38 991.31 556.38C1003.42 556.38 1023.47 540.5 1040.14 516.28L1054.44 527.2Z" fill="#21297C"/>
<path d="M1234.67 527.201C1210.65 562.141 1173.73 596.681 1136.41 596.681C1110.41 596.681 1100.48 578.811 1112.19 547.451L1129.47 501.201C1133.03 491.681 1130.06 487.911 1125.29 487.911C1119.27 487.911 1104.21 496.461 1084.87 531.401L1063.76 592.721H1010.96L1058.8 453.771H1111.6L1101.83 482.161C1120.49 461.751 1142.03 449.801 1162.62 449.801C1186.84 449.801 1193.76 469.251 1184.88 493.061L1165.99 543.701C1162.43 553.221 1166.2 556.401 1171.36 556.401C1183.67 556.401 1203.72 540.521 1220.39 516.301L1234.67 527.201Z" fill="#21297C"/>
<path d="M1405.37 516.29L1419.66 527.21C1395.64 562.15 1358.72 596.69 1321.4 596.69C1303.49 596.69 1293.62 587.9 1292.83 572.18C1279.78 586.46 1263.56 596.69 1245.18 596.69C1209.45 596.69 1194.53 557.39 1208.87 516.31C1222.32 477.79 1256.49 449.8 1290.24 449.8C1304.5 449.8 1317.38 455.81 1323.96 469.41L1376.99 314.82H1429.79L1351.21 543.75C1347.96 553.21 1351.38 556.4 1356.54 556.4C1368.65 556.38 1388.7 540.5 1405.37 516.29ZM1273.97 556.39C1283.07 556.39 1291.75 550.76 1299.43 540.93L1315.46 494.2C1312.92 486.28 1307.34 482.15 1298.78 482.15C1281.91 482.15 1267.2 498.63 1261.27 517.68C1254.1 540.7 1258.68 556.38 1273.97 556.39Z" fill="#21297C"/>
<path d="M766.35 656.6C789.78 656.6 846.54 692.57 846.54 762.86C846.54 833.15 792.75 913.34 721.14 913.34C649.53 913.34 589.47 855.26 589.47 778.37C589.47 701.48 643.92 652.97 679.23 652.97C714.54 652.97 733.35 664.52 733.35 664.52C733.35 664.52 742.92 656.6 766.35 656.6ZM698.7 806.75C698.7 824.57 704.64 839.75 720.15 839.75C732.36 839.75 762.39 807.41 762.39 767.48C762.39 734.81 754.47 720.62 746.22 720.62C736.32 720.62 698.7 760.22 698.7 806.75Z" fill="#21297C"/>
<path d="M871.62 657.92C878.55 657.92 890.76 659.9 918.15 659.9C945.54 659.9 967.65 653.63 1008.57 653.63C1033.98 653.63 1058.07 670.79 1058.07 689.93C1058.07 697.19 1038.6 719.63 1026.72 719.63C1014.84 719.63 977.55 731.51 976.23 737.78C975.9 739.43 975.57 742.07 975.57 745.04C975.57 752.63 977.55 762.53 985.14 762.53C995.7 762.53 1021.77 765.83 1030.02 773.42C1038.27 781.01 1042.89 790.25 1042.89 796.85C1042.89 805.43 1019.13 814.67 1011.54 817.64C999.33 822.59 977.88 828.53 977.88 846.02C977.88 860.21 981.51 875.39 981.51 884.63C981.51 893.87 954.12 916.31 938.94 916.31C923.76 916.31 913.86 902.78 909.24 902.78C904.62 902.78 881.19 896.51 877.56 871.76C874.26 848.66 873.27 825.56 873.27 806.75C873.27 787.94 877.89 747.02 877.89 711.38C877.89 675.74 861.72 680.69 861.72 670.79C861.72 663.53 864.69 657.92 871.62 657.92Z" fill="#21297C"/>
<path d="M1084.14 654.29C1089.42 654.29 1099.98 661.88 1113.18 661.88C1126.38 661.88 1163.67 653.96 1193.04 653.96C1222.41 653.96 1262.67 670.13 1262.67 691.91C1262.67 697.52 1235.94 713.03 1221.75 718.64C1207.56 724.25 1189.74 723.92 1186.11 734.15C1183.8 740.42 1182.15 751.31 1182.15 758.57C1182.15 763.19 1182.81 766.49 1184.46 766.49C1188.75 766.49 1197.99 764.84 1215.81 764.84C1233.63 764.84 1257.39 766.49 1257.39 776.72C1257.39 790.58 1257.39 805.43 1248.48 811.7C1221.75 830.51 1178.85 836.78 1178.85 842.06C1178.85 875.39 1183.8 881.66 1183.8 888.92C1183.8 896.18 1155.09 914.99 1136.28 914.99C1117.47 914.99 1067.31 887.27 1067.31 865.16C1067.31 843.05 1069.95 809.06 1069.95 762.2C1069.95 715.34 1076.55 687.29 1076.55 679.7C1076.55 672.11 1068.96 668.15 1068.96 663.86C1068.96 659.24 1078.86 654.29 1084.14 654.29Z" fill="#21297C"/>
<path d="M1123.47 942.394L774.395 944.707L774.487 958.707L1123.57 956.394L1123.47 942.394Z" fill="#21297C"/>
</g>
<defs>
<clipPath id="clip0_101_2">
<rect width="1873.82" height="1181.22" fill="white"/>
</clipPath>
</defs>
</svg>
